name C:\Users\u0101727\Documents\MyRepositories\upper-imu-dc\Results\main_tracking\Case_46\kinematics.mot
datacolumns 10
datarows 37
range 3.75000000 4.11000000
endheader 
time	clav_prot	clav_elev	scapula_abduction	scapula_elevation	scapula_upward_rot	scapula_winging	plane_elv	shoulder_elv	axial_rot	
          3.75000000	        -46.59272008	          9.21872278	         -2.89786194	         -1.70341029	         84.11629517	        -13.31913191	         37.23084390	         88.09735907	         -9.46980498	
          3.76000000	        -46.60777079	          9.21877996	         -2.92185434	         -1.70442650	         84.11779988	        -13.32944494	         37.21693235	         88.05524803	         -9.35703469	
          3.77000000	        -46.61761183	          9.22155131	         -2.94348192	         -1.70410447	         84.11178683	        -13.33813846	         37.20648811	         88.01293201	         -9.24162409	
          3.78000000	        -46.62181133	          9.22722028	         -2.96226243	         -1.70231520	         84.09800488	        -13.34499722	         37.19931705	         87.97053011	         -9.12404043	
          3.79000000	        -46.61991099	          9.23592187	         -2.97761427	         -1.69895202	         84.07626188	        -13.34976429	         37.19522025	         87.92813641	         -9.00486034	
          3.80000000	        -46.61145264	          9.24772993	         -2.98889399	         -1.69394069	         84.04642935	        -13.35215589	         37.19402744	         87.88580298	         -8.88475473	
          3.81000000	        -46.59600813	          9.26265005	         -2.99544392	         -1.68724658	         84.00844268	        -13.35188102	         37.19562899	         87.84352531	         -8.76447017	
          3.82000000	        -46.57320949	          9.28061911	         -2.99664551	         -1.67887798	         83.96229631	        -13.34866401	         37.20000296	         87.80123162	         -8.64480630	
          3.83000000	        -46.54277621	          9.30151020	         -2.99197275	         -1.66888624	         83.90803437	        -13.34226724	         37.20723476	         87.75877766	         -8.52658863	
          3.84000000	        -46.50453626	          9.32514006	         -2.98103818	         -1.65736396	         83.84573797	        -13.33251060	         37.21752802	         87.71594726	         -8.41063643	
          3.85000000	        -46.45843737	          9.35127600	         -2.96362368	         -1.64444308	         83.77551147	        -13.31928395	         37.23120526	         87.67245854	         -8.29772750	
          3.86000000	        -46.40454640	          9.37964025	         -2.93968892	         -1.63029331	         83.69747088	        -13.30254983	         37.24869728	         87.62797481	         -8.18856393	
          3.87000000	        -46.34303592	          9.40991169	         -2.90935488	         -1.61512084	         83.61173689	        -13.28233561	         37.27052177	         87.58211899	         -8.08374333	
          3.88000000	        -46.27416043	          9.44172647	         -2.87286532	         -1.59916616	         83.51843345	        -13.25871690	         37.29725327	         87.53449031	         -7.98373879	
          3.89000000	        -46.19822672	          9.47468001	         -2.83053531	         -1.58269998	         83.41769158	        -13.23179649	         37.32948947	         87.48468214	         -7.88888905	
          3.90000000	        -46.11556448	          9.50833287	         -2.78269809	         -1.56601605	         83.30965663	        -13.20168390	         37.36781877	         87.43229926	         -7.79939907	
          3.91000000	        -46.02650194	          9.54222186	         -2.72966033	         -1.54942071	         83.19449751	        -13.16847964	         37.41279329	         87.37697339	         -7.71535129	
          3.92000000	        -45.93134884	          9.57587571	         -2.67167014	         -1.53321987	         83.07241638	        -13.13226580	         37.46490796	         87.31837605	         -7.63672678	
          3.93000000	        -45.83038640	          9.60883307	         -2.60889802	         -1.51770524	         82.94365754	        -13.09310232	         37.52458490	         87.25622888	         -7.56343505	
          3.94000000	        -45.72386351	          9.64065987	         -2.54142948	         -1.50314170	         82.80851417	        -13.05102778	         37.59216146	         87.19031150	         -7.49534913	
          3.95000000	        -45.61199838	          9.67096407	         -2.46926860	         -1.48975742	         82.66733166	        -13.00606380	         37.66788200	         87.12046662	         -7.43234103	
          3.96000000	        -45.49498537	          9.69940690	         -2.39235292	         -1.47773722	         82.52050664	        -12.95822284	         37.75189419	         87.04660153	         -7.37431248	
          3.97000000	        -45.37300661	          9.72571106	         -2.31057868	         -1.46721896	         82.36848146	        -12.90751895	         37.84425046	         86.96868541	         -7.32121699	
          3.98000000	        -45.24624649	          9.74966680	         -2.22383389	         -1.45829208	         82.21173473	        -12.85398054	         37.94491455	         86.88674207	         -7.27307176	
          3.99000000	        -45.11490696	          9.77113634	         -2.13203451	         -1.45099754	         82.05076888	        -12.79766335	         38.05377210	         86.80083874	         -7.22995975	
          4.00000000	        -44.97922054	          9.79005630	         -2.03515769	         -1.44532905	         81.88609635	        -12.73866131	         38.17064326	         86.71107185	         -7.19202361	
          4.01000000	        -44.83945842	          9.80643664	         -1.93326601	         -1.44123619	         81.71822574	        -12.67711296	         38.29529486	         86.61755174	         -7.15945379	
          4.02000000	        -44.69593177	          9.82035427	         -1.82651842	         -1.43863034	         81.54764884	        -12.61320160	         38.42745068	         86.52038853	         -7.13247233	
          4.03000000	        -44.54898617	          9.83194053	         -1.71516702	         -1.43739389	         81.37482906	        -12.54714928	         38.56679950	         86.41968126	         -7.11131254	
          4.04000000	        -44.39899132	          9.84136406	         -1.59954310	         -1.43739193	         81.20019192	        -12.47920614	         38.71300167	         86.31551134	         -7.09619472	
          4.05000000	        -44.24632934	          9.84881251	         -1.48003815	         -1.43848418	         81.02411852	        -12.40963847	         38.86569529	         86.20793986	         -7.08729848	
          4.06000000	        -44.09138535	          9.85447755	         -1.35708635	         -1.44053434	         80.84694304	        -12.33871864	         39.02450270	         86.09700765	         -7.08473384	
          4.07000000	        -43.93454225	          9.85854589	         -1.23115250	         -1.44341539	         80.66895450	        -12.26671877	         39.18903738	         85.98273685	         -7.08851514	
          4.08000000	        -43.77617993	          9.86119644	         -1.10272601	         -1.44701064	         80.49040215	        -12.19390835	         39.35891069	         85.86513339	         -7.09854223	
          4.09000000	        -43.61667735	          9.86260135	         -0.97231902	         -1.45121219	         80.31150324	        -12.12055438	         39.53373816	         85.74418986	         -7.11459376	
          4.10000000	        -43.45641546	          9.86292752	         -0.84046526	         -1.45591915	         80.13245149	        -12.04692190	         39.71314503	         85.61988854	         -7.13633427	
          4.11000000	        -43.29577846	          9.86233570	         -0.70771664	         -1.46103749	         79.95342429	        -11.97327334	         39.89677139	         85.49220465	         -7.16333342	
